# xmcd
# 
# Track frame offsets:
#     150
#     22075
#     49287
#     61150
#     77100
#     93057
#     109912
#     126637
#     140277
#     155425
#     177895
#     190860
#     207462
#     228755
#     253600
# 
# Disc length: 3695
# 
# Revision: 0
# Processed by: cddbd v1.5.2PL0 Copyright (c) Steve Scherf et al.
# Submitted via: fre:ac v1.0.31
# 
DISCID=cd0e6d0f
DTITLE=渡辺歌子 - さらば光，風，バラよ　渡辺歌子コンサート1987
DYEAR=1988
DGENRE=Folk
TTITLE0=恋のロシアン・カフェ
TTITLE1=すり切れたレコード
TTITLE2=息子達が戦争に行く時
TTITLE3=スカーフ
TTITLE4=時は過ぎ行く
TTITLE5=思い出のマリッツァ
TTITLE6=最終のトロリーバス
TTITLE7=蟻
TTITLE8=ジョリ・モーム
TTITLE9=いつかの二人
TTITLE10=水に流して
TTITLE11=声のない恋
TTITLE12=ウイスキーが水に
TTITLE13=過ぎ去りし青春の日々
TTITLE14=赤いポスター
EXTD=
EXTT0=
EXTT1=
EXTT2=
EXTT3=
EXTT4=
EXTT5=
EXTT6=
EXTT7=
EXTT8=
EXTT9=
EXTT10=
EXTT11=
EXTT12=
EXTT13=
EXTT14=
PLAYORDER=
